<svg width="152" height="148" viewBox="0 0 152 148" fill="none" xmlns="http://www.w3.org/2000/svg">
<path d="M98.4297 111.848L56.9804 40.0556" stroke="white" stroke-width="6" stroke-linecap="round"/>
<path d="M43.1038 133.022C47.6142 140.834 57.6035 143.511 65.4156 139.001L66.2816 138.501C82.8624 128.928 88.5434 107.726 78.9705 91.1451L71.8038 78.7321L55.0607 88.3987C39.4364 97.4194 34.0832 117.398 43.1038 133.022Z" fill="#F7EEE3"/>
<path d="M9.30338 72.4778C4.79306 64.6657 7.46969 54.6764 15.2818 50.166L15.8592 49.8327C32.1211 40.4439 52.9152 46.0156 62.304 62.2776L69.804 75.2679L53.9269 84.4346C38.3027 93.4553 18.324 88.102 9.30338 72.4778Z" fill="#F7EEE3"/>
<path d="M108.896 14.9778C104.386 7.16567 94.3965 4.48904 86.5844 8.99937L86.0071 9.3327C69.7451 18.7215 64.1734 39.5156 73.5622 55.7776L81.0622 68.7679L96.9393 59.6013C112.564 50.5806 117.917 30.602 108.896 14.9778Z" fill="#F7EEE3"/>
<path d="M143.563 75.0222C148.073 82.8343 145.397 92.8236 137.584 97.334L137.007 97.6673C120.745 107.056 99.951 101.484 90.5622 85.2224L83.0622 72.2321L98.9393 63.0654C114.564 54.0447 134.542 59.398 143.563 75.0222Z" fill="#F7EEE3"/>
</svg>
