<svg width="123" height="118" viewBox="0 0 123 118" fill="none" xmlns="http://www.w3.org/2000/svg">
<path d="M21.6409 9.51098e-06H100.566C103.409 -0.00264382 106.224 0.549891 108.851 1.62599C111.478 2.70209 113.865 4.28063 115.875 6.27127C117.885 8.26191 119.479 10.6256 120.565 13.227C121.652 15.8284 122.21 18.6164 122.207 21.4316V96.5684C122.21 99.3836 121.652 102.172 120.565 104.773C119.479 107.374 117.885 109.738 115.875 111.729C113.865 113.719 111.478 115.298 108.851 116.374C106.224 117.45 103.409 118.003 100.566 118H21.6409C18.7982 118.003 15.9829 117.45 13.3561 116.374C10.7293 115.298 8.34257 113.719 6.3325 111.729C4.32242 109.738 2.72847 107.374 1.64187 104.773C0.555259 102.172 -0.00266964 99.3836 9.60384e-06 96.5684V21.4316C-0.00266964 18.6164 0.555259 15.8284 1.64187 13.227C2.72847 10.6256 4.32242 8.26191 6.3325 6.27127C8.34257 4.28063 10.7293 2.70209 13.3561 1.62599C15.9829 0.549891 18.7982 -0.00264382 21.6409 9.51098e-06Z" fill="#000B1D"/>
<path d="M48.3737 96.8204C55.4043 96.8204 61.1036 91.1761 61.1036 84.2135V71.6067H48.3737C41.3432 71.6067 35.6438 77.251 35.6438 84.2135C35.6438 91.1761 41.3432 96.8204 48.3737 96.8204Z" fill="#0ACF83"/>
<path d="M35.6438 58.9999C35.6438 52.0373 41.3432 46.3931 48.3737 46.3931H61.1036V71.6067H48.3737C41.3432 71.6067 35.6438 65.9625 35.6438 58.9999Z" fill="#A259FF"/>
<path d="M35.6438 33.7863C35.6438 26.8237 41.3432 21.1794 48.3737 21.1794H61.1036V46.3931H48.3737C41.3432 46.3931 35.6438 40.7488 35.6438 33.7863Z" fill="#F24E1E"/>
<path d="M61.1037 21.1794H73.8336C80.8641 21.1794 86.5635 26.8237 86.5635 33.7863C86.5635 40.7488 80.8641 46.3931 73.8336 46.3931H61.1037V21.1794Z" fill="#FF7262"/>
<path d="M86.5635 58.9999C86.5635 65.9625 80.8641 71.6067 73.8336 71.6067C66.803 71.6067 61.1037 65.9625 61.1037 58.9999C61.1037 52.0373 66.803 46.3931 73.8336 46.3931C80.8641 46.3931 86.5635 52.0373 86.5635 58.9999Z" fill="#1ABCFE"/>
</svg>
