<svg width="102" height="102" viewBox="0 0 102 102" fill="none" xmlns="http://www.w3.org/2000/svg">
<path d="M22.2 87C18.2236 87 15 83.7765 15 79.8C15 63.8942 27.8942 51 43.8 51L51 51L51 58.2C51 74.1058 38.1058 87 22.2 87Z" fill="#C431C7"/>
<path d="M5.09117 56.5443C2.2794 53.7325 2.27939 49.1737 5.09117 46.362C16.3383 35.1149 34.5734 35.1149 45.8205 46.362L50.9117 51.4531L45.8205 56.5443C34.5734 67.7914 16.3383 67.7914 5.09117 56.5443Z" fill="#C431C7"/>
<path d="M96.8229 56.5443C99.6347 53.7325 99.6347 49.1737 96.8229 46.362C85.5758 35.1149 67.3406 35.1149 56.0935 46.362L51.0024 51.4531L56.0935 56.5443C67.3406 67.7914 85.5758 67.7914 96.8229 56.5443Z" fill="#C431C7"/>
<path d="M46.362 5.09117C49.1737 2.2794 53.7325 2.27939 56.5443 5.09117C67.7914 16.3383 67.7914 34.5734 56.5443 45.8205L51.4531 50.9117L46.362 45.8205C35.1149 34.5734 35.1149 16.3383 46.362 5.09117Z" fill="#C431C7"/>
<path d="M46.362 96.8229C49.1737 99.6347 53.7325 99.6347 56.5443 96.8229C67.7914 85.5758 67.7914 67.3406 56.5443 56.0935L51.4531 51.0024L46.362 56.0935C35.1149 67.3406 35.1149 85.5758 46.362 96.8229Z" fill="#C431C7"/>
<path d="M79.8 87C83.7764 87 87 83.7765 87 79.8C87 63.8942 74.1058 51 58.2 51L51 51L51 58.2C51 74.1058 63.8942 87 79.8 87Z" fill="#C431C7"/>
<path d="M15 22.2C15 18.2236 18.2235 15 22.2 15C38.1058 15 51 27.8942 51 43.8V51H43.8C27.8942 51 15 38.1058 15 22.2Z" fill="#C431C7"/>
<path d="M87 22.2C87 18.2236 83.7765 15 79.8 15C63.8942 15 51 27.8942 51 43.8V51H58.2C74.1058 51 87 38.1058 87 22.2Z" fill="#C431C7"/>
<circle cx="50.75" cy="50.75" r="8.75" fill="white"/>
</svg>
