<svg width="120" height="118" viewBox="0 0 120 118" fill="none" xmlns="http://www.w3.org/2000/svg">
<mask id="mask0_7_387" style="mask-type:luminance" maskUnits="userSpaceOnUse" x="0" y="0" width="120" height="118">
<path fill-rule="evenodd" clip-rule="evenodd" d="M119.152 36.75C119.152 35.3492 119.153 33.9482 119.144 32.5473C119.137 31.3671 119.123 30.1873 119.091 29.0077C119.021 26.4368 118.868 23.8438 118.406 21.3015C117.938 18.7226 117.173 16.3223 115.968 13.9791C114.784 11.6759 113.236 9.56842 111.39 7.74129C109.544 5.91416 107.415 4.38274 105.089 3.21033C102.72 2.01673 100.294 1.25976 97.6871 0.796211C95.1197 0.339678 92.5007 0.188312 89.9046 0.118859C88.7127 0.0869244 87.5207 0.0734633 86.3285 0.06616C84.9132 0.0575678 83.4978 0.0582838 82.0824 0.0582838L65.6488 0H53.3578L37.2149 0.0582838C35.7968 0.0582838 34.3787 0.0575678 32.9606 0.06616C31.7659 0.0734633 30.5718 0.0869244 29.3776 0.118859C26.7755 0.188312 24.1505 0.339822 21.5771 0.796927C18.9666 1.26033 16.5367 2.01702 14.165 3.20976C11.8336 4.38231 9.70027 5.91387 7.85053 7.74129C6.00108 9.56828 4.45082 11.6754 3.26408 13.9781C2.05579 16.3225 1.2897 18.7241 0.820321 21.3045C0.358177 23.8458 0.205044 26.4379 0.134623 29.0077C0.102522 30.1874 0.0886404 31.3673 0.0814103 32.5473C0.0727343 33.9484 0 35.6887 0 37.0897L0.000433803 52.8549L0 65.1575L0.0734573 81.2577C0.0734573 82.6606 0.0728789 84.0634 0.0814103 85.4662C0.0886404 86.6479 0.102522 87.8293 0.134768 89.0106C0.205044 91.5849 0.358466 94.1816 0.821044 96.7273C1.29027 99.3097 2.05623 101.713 3.2635 104.06C4.45038 106.366 6.00094 108.476 7.85053 110.306C9.70012 112.136 11.8328 113.669 14.1638 114.843C16.537 116.038 18.968 116.796 21.5801 117.26C24.1524 117.718 26.7765 117.869 29.3776 117.939C30.5718 117.971 31.7661 117.984 32.9608 117.992C34.3789 118 35.7968 118 37.2149 118L53.5037 118H65.8252L82.0824 117.999C83.4978 117.999 84.9132 118 86.3285 117.992C87.5207 117.984 88.7127 117.971 89.9046 117.939C92.5017 117.869 95.1215 117.717 97.6901 117.26C100.296 116.796 102.721 116.038 105.088 114.844C107.415 113.67 109.544 112.136 111.39 110.306C113.236 108.477 114.783 106.367 115.968 104.061C117.173 101.713 117.938 99.3084 118.406 96.7243C118.868 94.1796 119.021 91.5838 119.091 89.0106C119.123 87.8292 119.137 86.6478 119.144 85.4662C119.153 84.0634 119.152 82.6606 119.152 81.2577C119.152 81.2577 119.151 65.4418 119.151 65.1575V52.842C119.151 52.6321 119.152 36.75 119.152 36.75Z" fill="white"/>
</mask>
<g mask="url(#mask0_7_387)">
<rect x="-8.38696" y="-8.87866" width="132.166" height="130.888" fill="url(#paint0_linear_7_387)"/>
<path fill-rule="evenodd" clip-rule="evenodd" d="M32.9863 19.4548L59.576 45.7722H87.1929C87.9972 45.7722 88.6464 45.1296 88.6464 44.3336V18.4381C88.6464 17.6421 87.9972 16.9995 87.1929 16.9995H34.0135C32.7199 16.9995 32.0706 18.5484 32.9863 19.4548ZM85.1386 74.545C86.4322 74.545 87.0815 72.9961 86.1657 72.0897L59.576 45.7723H31.9592C31.1549 45.7723 30.5057 46.4149 30.5057 47.2109V73.7489C30.5057 74.2573 30.7092 74.7464 31.0725 75.1061L57.0954 100.862C58.0111 101.769 59.576 101.126 59.576 99.8458V75.9836C59.576 75.1876 60.2253 74.545 61.0296 74.545H85.1386Z" fill="white"/>
</g>
<defs>
<linearGradient id="paint0_linear_7_387" x1="57.6962" y1="-8.87866" x2="57.6962" y2="122.01" gradientUnits="userSpaceOnUse">
<stop stop-color="#45494C"/>
<stop offset="1" stop-color="#0D0D0B"/>
</linearGradient>
</defs>
</svg>
