<svg width="21" height="20" viewBox="0 0 21 20" fill="none" xmlns="http://www.w3.org/2000/svg">
<path d="M10.6827 1.80184C13.3562 1.80184 13.6728 1.81356 14.7242 1.86046C15.7013 1.90346 16.229 2.06762 16.5807 2.20442C17.0458 2.38421 17.382 2.60309 17.7298 2.95095C18.0816 3.30272 18.2966 3.63494 18.4764 4.10006C18.6132 4.45183 18.7773 4.98339 18.8203 5.95661C18.8672 7.01192 18.879 7.32851 18.879 9.99805C18.879 12.6715 18.8672 12.9881 18.8203 14.0395C18.7773 15.0166 18.6132 15.5443 18.4764 15.896C18.2966 16.3612 18.0777 16.6973 17.7298 17.0451C17.3781 17.3969 17.0458 17.6119 16.5807 17.7917C16.229 17.9285 15.6974 18.0926 14.7242 18.1356C13.6689 18.1825 13.3523 18.1943 10.6827 18.1943C8.0093 18.1943 7.69271 18.1825 6.64131 18.1356C5.66418 18.0926 5.13652 17.9285 4.78476 17.7917C4.31964 17.6119 3.9835 17.393 3.63564 17.0451C3.28388 16.6934 3.06891 16.3612 2.88911 15.896C2.75231 15.5443 2.58816 15.0127 2.54516 14.0395C2.49826 12.9842 2.48653 12.6676 2.48653 9.99805C2.48653 7.3246 2.49826 7.00801 2.54516 5.95661C2.58816 4.97948 2.75231 4.45183 2.88911 4.10006C3.06891 3.63494 3.28778 3.29881 3.63564 2.95095C3.98741 2.59918 4.31964 2.38421 4.78476 2.20442C5.13652 2.06762 5.66809 1.90346 6.64131 1.86046C7.69271 1.81356 8.0093 1.80184 10.6827 1.80184ZM10.6827 0C7.96631 0 7.62626 0.0117256 6.55923 0.0586281C5.49611 0.105531 4.76521 0.277506 4.13203 0.523744C3.47149 0.781708 2.91256 1.12175 2.35755 1.68067C1.79863 2.23568 1.45859 2.79461 1.20062 3.45124C0.954386 4.08833 0.78241 4.81532 0.735508 5.87844C0.688606 6.94938 0.67688 7.28943 0.67688 10.0059C0.67688 12.7223 0.688606 13.0623 0.735508 14.1294C0.78241 15.1925 0.954386 15.9234 1.20062 16.5566C1.45859 17.2171 1.79863 17.776 2.35755 18.3311C2.91256 18.8861 3.47149 19.23 4.12812 19.4841C4.76521 19.7303 5.4922 19.9023 6.55532 19.9492C7.62236 19.9961 7.9624 20.0078 10.6788 20.0078C13.3953 20.0078 13.7353 19.9961 14.8023 19.9492C15.8655 19.9023 16.5964 19.7303 17.2295 19.4841C17.8862 19.23 18.4451 18.8861 19.0001 18.3311C19.5551 17.776 19.8991 17.2171 20.1531 16.5605C20.3994 15.9234 20.5713 15.1964 20.6183 14.1333C20.6652 13.0663 20.6769 12.7262 20.6769 10.0098C20.6769 7.29334 20.6652 6.95329 20.6183 5.88626C20.5713 4.82314 20.3994 4.09224 20.1531 3.45906C19.9069 2.79461 19.5669 2.23568 19.0079 1.68067C18.4529 1.12566 17.894 0.781708 17.2374 0.527653C16.6003 0.281415 15.8733 0.109439 14.8102 0.0625366C13.7392 0.0117256 13.3992 0 10.6827 0Z" fill="white"/>
<path d="M10.6818 4.86523C7.84424 4.86523 5.54211 7.16736 5.54211 10.005C5.54211 12.8426 7.84424 15.1447 10.6818 15.1447C13.5194 15.1447 15.8216 12.8426 15.8216 10.005C15.8216 7.16736 13.5194 4.86523 10.6818 4.86523ZM10.6818 13.3389C8.84092 13.3389 7.34786 11.8459 7.34786 10.005C7.34786 8.16404 8.84092 6.67098 10.6818 6.67098C12.5228 6.67098 14.0158 8.16404 14.0158 10.005C14.0158 11.8459 12.5228 13.3389 10.6818 13.3389Z" fill="white"/>
<path d="M17.2277 4.6633C17.2277 5.32775 16.6883 5.86323 16.0278 5.86323C15.3634 5.86323 14.8279 5.32385 14.8279 4.6633C14.8279 3.99885 15.3673 3.46338 16.0278 3.46338C16.6883 3.46338 17.2277 4.00276 17.2277 4.6633Z" fill="white"/>
</svg>
