<svg width="21" height="20" viewBox="0 0 21 20" fill="none" xmlns="http://www.w3.org/2000/svg">
<path d="M19.1964 0H2.15344C1.33704 0 0.67688 0.644531 0.67688 1.44141V18.5547C0.67688 19.3516 1.33704 20 2.15344 20H19.1964C20.0128 20 20.6769 19.3516 20.6769 18.5586V1.44141C20.6769 0.644531 20.0128 0 19.1964 0ZM6.61047 17.043H3.64172V7.49609H6.61047V17.043ZM5.1261 6.19531C4.17297 6.19531 3.40344 5.42578 3.40344 4.47656C3.40344 3.52734 4.17297 2.75781 5.1261 2.75781C6.07532 2.75781 6.84485 3.52734 6.84485 4.47656C6.84485 5.42188 6.07532 6.19531 5.1261 6.19531ZM17.7198 17.043H14.755V12.4023C14.755 11.2969 14.7355 9.87109 13.212 9.87109C11.6691 9.87109 11.4347 11.0781 11.4347 12.3242V17.043H8.47376V7.49609H11.3175V8.80078H11.3566C11.7511 8.05078 12.7198 7.25781 14.1613 7.25781C17.1652 7.25781 17.7198 9.23438 17.7198 11.8047V17.043Z" fill="white"/>
</svg>
