<svg width="21" height="20" viewBox="0 0 21 20" fill="none" xmlns="http://www.w3.org/2000/svg">
<path d="M0.67688 20L2.08942 14.8642C1.21778 13.3608 0.759774 11.6567 0.760611 9.90917C0.763123 4.44583 5.23017 0 10.7187 0C13.3822 0.000833333 15.8824 1.03333 17.763 2.90667C19.6428 4.78 20.6777 7.27 20.6769 9.91833C20.6744 15.3825 16.2073 19.8283 10.7187 19.8283C9.0525 19.8275 7.41053 19.4117 5.95612 18.6217L0.67688 20ZM6.20062 16.8275C7.60395 17.6567 8.94365 18.1533 10.7154 18.1542C15.2771 18.1542 18.993 14.4592 18.9956 9.91667C18.9972 5.365 15.2988 1.675 10.7221 1.67333C6.15708 1.67333 2.44361 5.36833 2.44193 9.91C2.44109 11.7642 2.98702 13.1525 3.90387 14.605L3.0674 17.645L6.20062 16.8275ZM15.7351 12.2742C15.6731 12.1708 15.5073 12.1092 15.2578 11.985C15.0091 11.8608 13.7858 11.2617 13.5572 11.1792C13.3295 11.0967 13.1637 11.055 12.9971 11.3033C12.8313 11.5508 12.354 12.1092 12.2092 12.2742C12.0643 12.4392 11.9186 12.46 11.6699 12.3358C11.4212 12.2117 10.6191 11.9508 9.66876 11.1067C8.92941 10.45 8.42954 9.63917 8.28468 9.39083C8.13983 9.14333 8.26961 9.00917 8.39353 8.88583C8.50573 8.775 8.64221 8.59667 8.76697 8.45167C8.89341 8.30833 8.93444 8.205 9.01817 8.03917C9.10106 7.87417 9.06003 7.72917 8.99723 7.605C8.93444 7.48167 8.43707 6.2625 8.23026 5.76667C8.02763 5.28417 7.82249 5.34917 7.6701 5.34167L7.19283 5.33333C7.02704 5.33333 6.75743 5.395 6.52968 5.64333C6.30193 5.89167 5.65888 6.49 5.65888 7.70917C5.65888 8.92833 6.55061 10.1058 6.67453 10.2708C6.79929 10.4358 8.4287 12.9375 10.9247 14.01C11.5184 14.265 11.9822 14.4175 12.3431 14.5317C12.9393 14.72 13.4819 14.6933 13.9106 14.63C14.3887 14.5592 15.3826 14.0308 15.5902 13.4525C15.7979 12.8733 15.7979 12.3775 15.7351 12.2742Z" fill="white"/>
</svg>
