<svg width="123" height="118" viewBox="0 0 123 118" fill="none" xmlns="http://www.w3.org/2000/svg">
<path d="M21.6409 9.51098e-06H100.566C103.409 -0.00264382 106.224 0.549891 108.851 1.62599C111.478 2.70209 113.865 4.28063 115.875 6.27127C117.885 8.26191 119.479 10.6256 120.565 13.227C121.652 15.8284 122.21 18.6164 122.207 21.4316V96.5684C122.21 99.3836 121.652 102.172 120.565 104.773C119.479 107.374 117.885 109.738 115.875 111.729C113.865 113.719 111.478 115.298 108.851 116.374C106.224 117.45 103.409 118.003 100.566 118H21.6409C18.7982 118.003 15.9829 117.45 13.3561 116.374C10.7293 115.298 8.34257 113.719 6.3325 111.729C4.32242 109.738 2.72847 107.374 1.64187 104.773C0.555259 102.172 -0.00266964 99.3836 9.60384e-06 96.5684V21.4316C-0.00266964 18.6164 0.555259 15.8284 1.64187 13.227C2.72847 10.6256 4.32242 8.26191 6.3325 6.27127C8.34257 4.28063 10.7293 2.70209 13.3561 1.62599C15.9829 0.549891 18.7982 -0.00264382 21.6409 9.51098e-06Z" fill="#470137"/>
<path d="M64.2607 31.0129L48.9848 55.9744L65.2791 82.4488C65.3863 82.6315 65.4225 82.8466 65.3809 83.0539C65.33 83.2556 65.1263 83.1043 64.8208 83.1548H53.1602C52.3455 83.1548 51.7853 83.1043 51.4289 82.6001C50.3596 80.4821 49.2394 78.4146 48.17 76.2966C47.1007 74.1787 45.9296 72.1112 44.7075 69.9428C43.4854 67.7744 42.2634 65.606 41.0413 63.3872H40.9394C39.8701 65.5556 38.699 67.724 37.5278 69.8924C36.3567 72.0608 35.1855 74.2291 34.0653 76.3471C32.9451 78.465 31.723 80.6334 30.5518 82.7009C30.3482 83.2052 29.9408 83.2556 29.3807 83.2556H18.1783C17.9747 83.2556 17.8219 83.3565 17.8219 83.1043C17.7992 83.0099 17.7965 82.9119 17.814 82.8164C17.8316 82.7209 17.8689 82.6301 17.9237 82.5496L33.7598 56.8317L18.3311 30.9625C18.1783 30.7607 18.1274 30.559 18.2293 30.4582C18.2913 30.3863 18.3701 30.3304 18.4588 30.2953C18.5475 30.2601 18.6434 30.2468 18.7385 30.2565H30.2972C30.5381 30.2617 30.7774 30.2955 31.0101 30.3573C31.2141 30.466 31.3887 30.6217 31.5193 30.8112C32.4868 32.9796 33.607 35.1479 34.7782 37.3163C35.9493 39.4847 37.1714 41.6026 38.4444 43.7206C39.7174 45.8385 40.7867 47.9565 41.856 50.1249H41.9578C43.0272 47.906 44.1474 45.7377 45.2676 43.6197C46.3879 41.5018 47.559 39.3838 48.7302 37.2659C49.9013 35.1479 51.0215 32.9796 52.1418 30.912C52.1804 30.7135 52.2886 30.5349 52.4473 30.4078C52.6489 30.2976 52.8835 30.2618 53.1093 30.3069H63.8533C63.9135 30.2935 63.9758 30.292 64.0365 30.3026C64.0973 30.3131 64.1554 30.3354 64.2074 30.3682C64.2595 30.401 64.3044 30.4436 64.3398 30.4937C64.3751 30.5437 64.4002 30.6002 64.4134 30.6599C64.4643 30.7103 64.3625 30.912 64.2607 31.0129Z" fill="#FF61F6"/>
<path d="M87.7857 84.2138C84.0113 84.2751 80.2707 83.4998 76.838 81.9445C73.6441 80.4655 70.9674 78.078 69.1491 75.0864C67.2651 72.0104 66.3485 68.1779 66.3485 63.589C66.2969 59.8572 67.2645 56.1809 69.1491 52.9488C71.0815 49.664 73.8802 46.962 77.2453 45.1326C80.8097 43.1659 85.087 42.2078 90.128 42.2078C90.4851 42.2038 90.8422 42.2206 91.1973 42.2582C91.6556 42.3087 92.1648 42.3087 92.7758 42.3591V26.424C92.7758 26.071 92.9286 25.8693 93.285 25.8693H103.622C103.736 25.854 103.852 25.8819 103.946 25.9473C104.04 26.0127 104.106 26.1109 104.131 26.2223V74.33C104.131 75.2377 104.182 76.2463 104.233 77.3557C104.284 78.4651 104.386 79.4232 104.436 80.2804C104.447 80.4507 104.404 80.6201 104.313 80.7649C104.221 80.9096 104.087 81.0223 103.927 81.0873C101.26 82.1974 98.4763 83.0092 95.6273 83.5078C93.0394 83.97 90.4154 84.2062 87.7857 84.2138ZM92.7758 74.1283V51.9403C92.3224 51.8319 91.8635 51.7477 91.401 51.6881C90.8409 51.6377 90.2808 51.5873 89.7206 51.5873C87.7247 51.565 85.7521 52.0145 83.9667 52.8984C82.2267 53.757 80.7369 55.0415 79.6386 56.63C78.5183 58.2437 77.9582 60.4121 77.9582 63.0343C77.9138 64.8042 78.2075 66.5664 78.8238 68.2283C79.3163 69.5723 80.0982 70.794 81.1152 71.8086C82.0969 72.7364 83.282 73.4268 84.5778 73.8257C85.9417 74.2681 87.3689 74.4895 88.8041 74.4813C89.5679 74.4813 90.2808 74.4309 90.9427 74.3804C91.5648 74.4244 92.1894 74.3385 92.7758 74.1283Z" fill="#FF61F6"/>
</svg>
